PathFileType	4	(X/Y/Z)	/Users/itak/Documents/Research/Walk-IL/dataset/trc/00276_00010.trc
DataRate	CameraRate	NumFrames	NumMarkers	Units	OrigDataRate	OrigDataStartFrame	OrigNumFrames
100.000000	100.000000	4	54	mm	100.000000	308	493
Frame#	Time	RPSI			LPSI			L3			STRN			T10			C7			CLAV			RBAK			LBAK			LSHO			LUPA			LAEL			LAOL			LWTS			LWPS			LFRA			LHPS			LHTS			RSHO			RUPA			RAEL			RAOL			RWTS			RWPS			RFRA			RIFD			RHTS			RHPS			RBHD			LFHD			RFHD			LBHD			LHIP			RHIP			RASI			LKNE			LTHI			LANK			LTIP			LTOE			LMT1			LMT5			LHEE			RKNE			RTHI			RANK			RTIP			RTOE			RMT1			RMT5			RHEE			LIFD			LASI			*53			
		X1	Y1	Z1	X2	Y2	Z2	X3	Y3	Z3	X4	Y4	Z4	X5	Y5	Z5	X6	Y6	Z6	X7	Y7	Z7	X8	Y8	Z8	X9	Y9	Z9	X10	Y10	Z10	X11	Y11	Z11	X12	Y12	Z12	X13	Y13	Z13	X14	Y14	Z14	X15	Y15	Z15	X16	Y16	Z16	X17	Y17	Z17	X18	Y18	Z18	X19	Y19	Z19	X20	Y20	Z20	X21	Y21	Z21	X22	Y22	Z22	X23	Y23	Z23	X24	Y24	Z24	X25	Y25	Z25	X26	Y26	Z26	X27	Y27	Z27	X28	Y28	Z28	X29	Y29	Z29	X30	Y30	Z30	X31	Y31	Z31	X32	Y32	Z32	X33	Y33	Z33	X34	Y34	Z34	X35	Y35	Z35	X36	Y36	Z36	X37	Y37	Z37	X38	Y38	Z38	X39	Y39	Z39	X40	Y40	Z40	X41	Y41	Z41	X42	Y42	Z42	X43	Y43	Z43	X44	Y44	Z44	X45	Y45	Z45	X46	Y46	Z46	X47	Y47	Z47	X48	Y48	Z48	X49	Y49	Z49	X50	Y50	Z50	X51	Y51	Z51	X52	Y52	Z52	X53	Y53	Z53	X54	Y54	Z54	

309	3.08	-863.2769775390625	995.4965209960938	67.26636505126953	-861.3721313476562	1000.25	-106.500129699707	-834.0440063476562	1078.417846679688	-20.18743705749512	-552.8483276367188	1229.587890625	-23.96874046325684	-833.3086547851562	1201.825439453125	-21.00885200500488	-753.056640625	1434.80419921875	-39.93428039550781	-605.5599365234375	1336.45361328125	-29.46109008789062	-816.6756591796875	1309.424926757812	39.79850769042969	-771.5062255859375	1396.667846679688	-142.3331451416016	-681.5375366210938	1391.539306640625	-192.3837890625	-720.4995727539062	1278.429931640625	-266.095947265625	-731.5000610351562	1080.168579101562	-283.5423583984375	-795.8407592773438	1064.442993164062	-226.1851959228516	-602.8478393554688	894.0783081054688	-250.3822479248047	-639.4471435546875	870.8150634765625	-309.0003051757812	-702.495361328125	985.6669921875	-296.8323974609375	-605.1828002929688	789.3711547851562	-310.2493896484375	-550.711669921875	810.8775634765625	-279.2204284667969	-685.34423828125	1414.591186523438	118.6119232177734	-698.8872680664062	1362.028442382812	188.0641937255859	-777.1621704101562	1112.885620117188	246.3377532958984	-808.613525390625	1107.291137695312	155.7427673339844	-697.0784301757812	881.8873291015625	208.2563018798828	-743.4356079101562	882.5442504882812	278.7143249511719	-764.6417236328125	1043.963745117188	262.3233032226562	-710.4367065429688	698.08984375	205.6546020507812	-680.5751953125	764.0321655273438	225.7513580322266	-731.5380249023438	768.3892211914062	274.8210754394531	-726.4466552734375	1582.863037109375	28.37606620788574	-556.4100341796875	1623.866088867188	-93.07663726806641	-557.0557250976562	1621.134155273438	0.6472092270851135	-725.5052490234375	1576.989501953125	-118.5234832763672	-795.4114990234375	956.4447631835938	-206.14501953125	-760.4632568359375	944.3111572265625	167.9443817138672	-643.5087280273438	951.6427001953125	92.71642303466797	-720.5407104492188	485.0177001953125	-169.3209991455078	-731.7252807617188	627.4407958984375	-195.2227783203125	-814.6317749023438	49.87796020507812	-137.7334747314453	-771.8882446289062	260.1534118652344	-161.2187957763672	-607.2665405273438	43.44849395751953	-83.24546051025391	-676.080322265625	32.46641159057617	-42.83819961547852	-689.9193725585938	51.82970809936523	-152.8178558349609	-861.73046875	41.27091598510742	-79.49095153808594	-542.0751953125	525.5941162109375	137.1853485107422	-640.8947143554688	769.4443969726562	161.667724609375	-781.1990966796875	141.989013671875	102.3059692382812	-569.7408447265625	404.0680541992188	123.7199401855469	-594.5670166015625	83.66941833496094	69.90933227539062	-645.4657592773438	92.58749389648438	24.33577919006348	-690.254638671875	96.71551513671875	135.0703735351562	-824.6624755859375	158.8384246826172	46.6842155456543	-534.5282592773438	720.6709594726562	-259.2879638671875	-656.3059692382812	958.8338012695312	-157.4256134033203	nan	nan	nan	
310	3.09	-869.861572265625	996.0751342773438	68.1929931640625	-868.6027221679688	1000.2578125	-105.6282043457031	-841.1624755859375	1078.791748046875	-18.97803688049316	-560.8776245117188	1230.983642578125	-24.20389938354492	-841.052001953125	1201.919921875	-19.28732872009277	-761.7451171875	1435.33203125	-38.08446884155273	-613.880859375	1337.791381835938	-29.02565383911133	-824.199462890625	1309.472290039062	41.77470016479492	-780.9119262695312	1397.378051757812	-140.3993072509766	-691.3201293945312	1392.779663085938	-191.2528839111328	-731.1630859375	1280.119995117188	-265.1011352539062	-743.4913330078125	1081.479125976562	-283.6691589355469	-807.2777099609375	1066.636352539062	-225.5178680419922	-618.5736083984375	892.1236572265625	-252.0973358154297	-656.24560546875	869.8753662109375	-310.3492126464844	-716.3947143554688	986.26904296875	-297.3489074707031	-624.258544921875	787.572998046875	-311.9562072753906	-568.778076171875	807.6436767578125	-281.5099182128906	-692.7588500976562	1415.132202148438	119.8194732666016	-705.4556274414062	1362.494995117188	189.3269653320312	-781.8506469726562	1113.126586914062	248.8532562255859	-813.9488525390625	1107.048828125	158.5377197265625	-699.37353515625	883.0692138671875	210.8245391845703	-745.44189453125	883.253173828125	281.412109375	-768.5277099609375	1044.408813476562	264.9072570800781	-710.3431396484375	699.0007934570312	208.6577453613281	-681.1304321289062	765.4956665039062	228.5556182861328	-732.02294921875	769.2988891601562	277.7816772460938	-735.2157592773438	1583.506225585938	29.99320411682129	-565.70263671875	1625.103759765625	-91.98025512695312	-565.966064453125	1622.197875976562	1.712759375572205	-734.7799682617188	1577.877197265625	-116.9204788208008	-802.8693237304688	956.4568481445312	-205.4017639160156	-766.7454833984375	944.9152221679688	168.6230316162109	-649.8256225585938	952.3811645507812	93.13979339599609	-724.5550537109375	485.5320739746094	-168.7761993408203	-736.9827270507812	627.8027954101562	-194.658447265625	-814.8541870117188	49.77411270141602	-137.6871643066406	-773.87255859375	260.2904663085938	-160.9602508544922	-607.4711303710938	43.72203063964844	-83.30289459228516	-676.0513916015625	32.43760299682617	-42.92667007446289	-690.1884155273438	52.03531646728516	-152.8391418457031	-861.9550170898438	40.94217300415039	-79.47505950927734	-554.5813598632812	522.3987426757812	138.6352233886719	-648.2979736328125	768.3270874023438	162.1110534667969	-810.6447143554688	150.0538940429688	105.5691757202148	-587.2176513671875	402.4200439453125	125.2579574584961	-627.4744262695312	82.4410400390625	70.98255920410156	-678.4325561523438	94.31353759765625	25.85423278808594	-721.7110595703125	100.1989898681641	137.1080932617188	-853.6474609375	169.1422576904297	50.45254898071289	-555.3270263671875	716.7449951171875	-261.8319091796875	-663.61083984375	959.3385620117188	-157.0307312011719	nan	nan	nan	
311	3.1	-876.2137451171875	996.406005859375	69.427490234375	-875.7774658203125	1000.205322265625	-104.446907043457	-848.2708740234375	1078.903442382812	-17.61610221862793	-568.9320068359375	1232.118530273438	-24.46533012390137	-848.5443115234375	1201.713623046875	-17.46665382385254	-770.4161987304688	1435.68017578125	-36.23767852783203	-622.164306640625	1338.857788085938	-28.59826850891113	-831.7073974609375	1309.246337890625	43.72139739990234	-790.2940063476562	1397.87939453125	-138.4734344482422	-701.05908203125	1393.81298828125	-190.1038970947266	-741.7669677734375	1281.624145507812	-264.1152954101562	-755.253173828125	1082.593627929688	-283.9352722167969	-818.5531616210938	1068.581909179688	-225.0812225341797	-634.5018920898438	889.8456420898438	-253.6236572265625	-673.0903930664062	868.7532958984375	-311.6103210449219	-730.1456909179688	986.65625	-297.8991394042969	-643.5267333984375	785.581298828125	-313.51123046875	-587.181640625	804.02392578125	-283.5148315429688	-700.234130859375	1415.430786132812	121.0419845581055	-712.1400756835938	1362.699340820312	190.5720672607422	-786.5343017578125	1113.085327148438	251.3622894287109	-819.2400512695312	1106.468627929688	161.3092498779297	-701.5833740234375	884.044677734375	213.468017578125	-747.4293823242188	883.73046875	284.2206420898438	-772.3963623046875	1044.591430664062	267.5223693847656	-709.8192749023438	699.7656860351562	211.8697357177734	-681.4561157226562	766.8448486328125	231.5435180664062	-732.2949829101562	770.0132446289062	280.8928833007812	-743.9943237304688	1583.960205078125	31.6440372467041	-575.0062866210938	1626.214477539062	-90.82067108154297	-574.9006958007812	1623.13525390625	2.843147993087769	-744.053955078125	1578.588989257812	-115.2868499755859	-810.4005126953125	956.4987182617188	-204.4870147705078	-772.7009887695312	945.074951171875	169.466552734375	-655.864501953125	952.7716064453125	93.63041687011719	-728.34521484375	486.0220031738281	-168.3187103271484	-741.9890747070312	628.1170654296875	-194.0602416992188	-815.0733642578125	49.65936660766602	-137.6594390869141	-775.6805419921875	260.3944396972656	-160.7351379394531	-607.7033081054688	44.00972366333008	-83.35066223144531	-676.0938720703125	32.38045883178711	-43.01986312866211	-690.4454345703125	52.23715209960938	-152.8642730712891	-862.17333984375	40.62183380126953	-79.47067260742188	-567.8834838867188	518.5318603515625	140.1289672851562	-655.98095703125	766.4932250976562	162.6997375488281	-839.613525390625	157.6677703857422	109.2287292480469	-605.3339233398438	400.2790222167969	126.9707870483398	-660.3172607421875	80.94907379150391	72.62206268310547	-711.0985717773438	95.82425689697266	27.87138748168945	-752.92333984375	103.3208541870117	139.5608978271484	-882.0420532226562	178.9436187744141	54.58144760131836	-576.7081909179688	712.5075073242188	-264.0675964355469	-670.8863525390625	959.8133544921875	-156.5849761962891	nan	nan	nan	
312	3.11	-882.3318481445312	996.5136108398438	70.94948577880859	-882.8916625976562	1000.083557128906	-102.9767608642578	-855.3275756835938	1078.77880859375	-16.10070991516113	-577.0001220703125	1233.013793945312	-24.73326683044434	-855.8157958984375	1201.242553710938	-15.55081176757812	-779.0679321289062	1435.861328125	-34.39719009399414	-630.42529296875	1339.65966796875	-28.16916847229004	-839.2057495117188	1308.778564453125	45.65446472167969	-799.6401977539062	1398.185424804688	-136.5542144775391	-710.7474365234375	1394.648559570312	-188.9339599609375	-752.29150390625	1282.943725585938	-263.1285400390625	-766.8380126953125	1083.523559570312	-284.2984619140625	-829.6849975585938	1070.299682617188	-224.7825469970703	-650.6136474609375	887.2968139648438	-254.9497528076172	-689.9857177734375	867.4932861328125	-312.7703552246094	-743.7747802734375	986.8518676757812	-298.4513549804688	-662.9815673828125	783.4577026367188	-314.9258422851562	-605.9313354492188	800.0921630859375	-285.2328491210938	-707.7620849609375	1415.513916015625	122.2770156860352	-718.9273681640625	1362.6728515625	191.8050994873047	-791.2364501953125	1112.789306640625	253.829345703125	-824.47265625	1105.584350585938	164.0063781738281	-703.7175903320312	884.8357543945312	216.1771087646484	-749.4144287109375	884.012451171875	287.1101684570312	-776.27294921875	1044.54150390625	270.1329345703125	-708.941650390625	700.41796875	215.3138427734375	-681.605224609375	768.0935668945312	234.7165679931641	-732.404541015625	770.575927734375	284.1487731933594	-752.7705078125	1584.23388671875	33.32490158081055	-584.3038330078125	1627.190185546875	-89.60257720947266	-583.8495483398438	1623.939575195312	4.035989284515381	-753.3121337890625	1579.1298828125	-113.6317367553711	-818.0084228515625	956.5494995117188	-203.4135131835938	-778.35400390625	944.8546142578125	170.4593353271484	-661.6295166015625	952.8550415039062	94.19693756103516	-731.92041015625	486.4809265136719	-167.9347381591797	-746.787841796875	628.3804321289062	-193.4358978271484	-815.2888793945312	49.53655242919922	-137.6448974609375	-777.3231811523438	260.4678039550781	-160.5364685058594	-607.9654541015625	44.30930709838867	-83.40123748779297	-676.1973876953125	32.30375671386719	-43.11479187011719	-690.684326171875	52.42633056640625	-152.8961791992188	-862.3754272460938	40.31130981445312	-79.46875	-581.9859008789062	514.1176147460938	141.6792297363281	-663.9894409179688	764.03662109375	163.4378662109375	-868.0634765625	164.71337890625	113.1938629150391	-624.0308227539062	397.7134399414062	128.8666381835938	-692.9423828125	79.20845031738281	74.75391387939453	-743.3202514648438	97.10559844970703	30.3305778503418	-783.7967529296875	106.0234756469727	142.34912109375	-909.817626953125	188.0960693359375	58.97506713867188	-598.5902709960938	708.095703125	-266.011474609375	-678.1296997070312	960.2490234375	-156.0894165039062	nan	nan	nan	
